<svg width="138" height="40" viewBox="0 0 138 40" fill="none" xmlns="http://www.w3.org/2000/svg">
<circle cx="20" cy="20" r="20" fill="url(#paint0_linear_2970_1096)"/>
<path d="M19.564 7.36328C19.913 7.36328 20.233 7.56695 20.3784 7.91602L23.9272 16.4971L31.0259 15.625C31.3749 15.596 31.6951 15.7414 31.8696 16.0322C32.0439 16.323 32.044 16.7012 31.8696 16.9629L26.6909 24.7588L27.6509 26.9404C27.7963 27.2603 27.7096 27.6386 27.4771 27.9004C27.2444 28.1621 26.837 28.2206 26.5171 28.1045L20.5532 25.6025H20.437V29.7627C20.437 30.2281 20.0294 30.6357 19.564 30.6357C19.0695 30.6356 18.6919 30.2572 18.6919 29.7627V25.6494L12.6987 28.1045C12.5825 28.1335 12.4663 28.1621 12.3501 28.1621C12.1174 28.1621 11.8557 28.0456 11.6812 27.8711C11.4486 27.5803 11.39 27.1734 11.5933 26.8535L12.728 24.9043L7.34619 16.9922C7.14259 16.7013 7.1434 16.3522 7.31787 16.0322C7.49241 15.7413 7.84164 15.5668 8.16162 15.625L15.2007 16.4971L18.7495 7.91602C18.8949 7.59613 19.215 7.36342 19.564 7.36328ZM16.5679 17.7773C16.4224 18.1263 16.0445 18.3588 15.6665 18.3008L9.87744 17.6025L14.4731 24.3516C14.6477 24.6134 14.677 24.9913 14.5024 25.2822L14.3862 25.5146L18.313 23.8857C18.4002 23.8567 18.517 23.8281 18.6333 23.8281H20.728C20.8442 23.8282 20.9605 23.8567 21.0767 23.8857L25.1782 25.6025L24.8872 25.0205C24.771 24.7587 24.8004 24.4385 24.9458 24.1768L29.3091 17.6025L23.4331 18.3301C23.0551 18.3882 22.6773 18.1555 22.5317 17.8066L19.564 10.5342L16.5679 17.7773Z" fill="white"/>
<path d="M55.614 24.716C54.618 24.716 53.694 24.554 52.842 24.23C52.002 23.906 51.27 23.45 50.646 22.862C50.034 22.274 49.554 21.584 49.206 20.792C48.87 20 48.702 19.136 48.702 18.2C48.702 17.264 48.87 16.4 49.206 15.608C49.554 14.816 50.04 14.126 50.664 13.538C51.288 12.95 52.02 12.494 52.86 12.17C53.7 11.846 54.612 11.684 55.596 11.684C56.592 11.684 57.504 11.846 58.332 12.17C59.172 12.494 59.898 12.95 60.51 13.538C61.134 14.126 61.62 14.816 61.968 15.608C62.316 16.388 62.49 17.252 62.49 18.2C62.49 19.136 62.316 20.006 61.968 20.81C61.62 21.602 61.134 22.292 60.51 22.88C59.898 23.456 59.172 23.906 58.332 24.23C57.504 24.554 56.598 24.716 55.614 24.716ZM55.596 22.232C56.16 22.232 56.676 22.136 57.144 21.944C57.624 21.752 58.044 21.476 58.404 21.116C58.764 20.756 59.04 20.33 59.232 19.838C59.436 19.346 59.538 18.8 59.538 18.2C59.538 17.6 59.436 17.054 59.232 16.562C59.04 16.07 58.764 15.644 58.404 15.284C58.056 14.924 57.642 14.648 57.162 14.456C56.682 14.264 56.16 14.168 55.596 14.168C55.032 14.168 54.51 14.264 54.03 14.456C53.562 14.648 53.148 14.924 52.788 15.284C52.428 15.644 52.146 16.07 51.942 16.562C51.75 17.054 51.654 17.6 51.654 18.2C51.654 18.788 51.75 19.334 51.942 19.838C52.146 20.33 52.422 20.756 52.77 21.116C53.13 21.476 53.55 21.752 54.03 21.944C54.51 22.136 55.032 22.232 55.596 22.232ZM64.6815 24.5V11.9H67.0935L74.5275 20.972H73.3575V11.9H76.2375V24.5H73.8435L66.3915 15.428H67.5615V24.5H64.6815ZM81.8286 24.5V14.276H77.7966V11.9H88.7766V14.276H84.7446V24.5H81.8286ZM88.0567 24.5L93.6728 11.9H96.5528L102.187 24.5H99.1268L94.5188 13.376H95.6708L91.0448 24.5H88.0567ZM90.8647 21.8L91.6388 19.586H98.1188L98.9108 21.8H90.8647ZM103.494 24.5V11.9H108.948C110.076 11.9 111.048 12.086 111.864 12.458C112.68 12.818 113.31 13.34 113.754 14.024C114.198 14.708 114.42 15.524 114.42 16.472C114.42 17.408 114.198 18.218 113.754 18.902C113.31 19.574 112.68 20.09 111.864 20.45C111.048 20.81 110.076 20.99 108.948 20.99H105.114L106.41 19.712V24.5H103.494ZM111.504 24.5L108.354 19.928H111.468L114.654 24.5H111.504ZM106.41 20.036L105.114 18.668H108.786C109.686 18.668 110.358 18.476 110.802 18.092C111.246 17.696 111.468 17.156 111.468 16.472C111.468 15.776 111.246 15.236 110.802 14.852C110.358 14.468 109.686 14.276 108.786 14.276H105.114L106.41 12.89V20.036ZM116.73 24.5V11.9H119.646V24.5H116.73ZM128.757 24.716C127.761 24.716 126.837 24.554 125.985 24.23C125.145 23.906 124.413 23.45 123.789 22.862C123.177 22.274 122.697 21.584 122.349 20.792C122.013 20 121.845 19.136 121.845 18.2C121.845 17.264 122.013 16.4 122.349 15.608C122.697 14.816 123.183 14.126 123.807 13.538C124.431 12.95 125.163 12.494 126.003 12.17C126.843 11.846 127.755 11.684 128.739 11.684C129.735 11.684 130.647 11.846 131.475 12.17C132.315 12.494 133.041 12.95 133.653 13.538C134.277 14.126 134.763 14.816 135.111 15.608C135.459 16.388 135.633 17.252 135.633 18.2C135.633 19.136 135.459 20.006 135.111 20.81C134.763 21.602 134.277 22.292 133.653 22.88C133.041 23.456 132.315 23.906 131.475 24.23C130.647 24.554 129.741 24.716 128.757 24.716ZM128.739 22.232C129.303 22.232 129.819 22.136 130.287 21.944C130.767 21.752 131.187 21.476 131.547 21.116C131.907 20.756 132.183 20.33 132.375 19.838C132.579 19.346 132.681 18.8 132.681 18.2C132.681 17.6 132.579 17.054 132.375 16.562C132.183 16.07 131.907 15.644 131.547 15.284C131.199 14.924 130.785 14.648 130.305 14.456C129.825 14.264 129.303 14.168 128.739 14.168C128.175 14.168 127.653 14.264 127.173 14.456C126.705 14.648 126.291 14.924 125.931 15.284C125.571 15.644 125.289 16.07 125.085 16.562C124.893 17.054 124.797 17.6 124.797 18.2C124.797 18.788 124.893 19.334 125.085 19.838C125.289 20.33 125.565 20.756 125.913 21.116C126.273 21.476 126.693 21.752 127.173 21.944C127.653 22.136 128.175 22.232 128.739 22.232Z" fill="#1E1E1E"/>
<defs>
<linearGradient id="paint0_linear_2970_1096" x1="2.32422" y1="-27.8723" x2="73.78" y2="-8.19408" gradientUnits="userSpaceOnUse">
<stop stop-color="#FC6039"/>
<stop offset="0.802885" stop-color="#DA3A3A"/>
</linearGradient>
</defs>
</svg>
